<svg width="400" height="100" viewBox="0 0 400 100" xmlns="http://www.w3.org/2000/svg">
  <!-- Mega M (unmaterialized dots) -->
  <g id="mega-m" fill="#CCC">
    <circle cx="40" cy="70" r="2"/> <circle cx="43" cy="60" r="2"/> <circle cx="46" cy="50" r="2"/> <circle cx="49" cy="40" r="2"/> <circle cx="52" cy="33" r="2"/>
    <circle cx="58" cy="40" r="2"/> <circle cx="61" cy="47" r="2"/> <circle cx="64" cy="54" r="2"/>
    <circle cx="70" cy="50" r="2"/> <circle cx="73" cy="43" r="2"/> <circle cx="76" cy="36" r="2"/>
    <circle cx="82" cy="30" r="2"/> <circle cx="85" cy="37" r="2"/> <circle cx="88" cy="44" r="2"/> <circle cx="91" cy="51" r="2"/> <circle cx="94" cy="58" r="2"/> <circle cx="97" cy="65" r="2"/> <circle cx="100" cy="70" r="2"/>
  </g>

  <!-- The Lens -->
  <g transform="translate(70, 50)">
    <circle cx="0" cy="0" r="30" fill="none" stroke="#333" stroke-width="4" stroke-dasharray="150 40" transform="rotate(-30)"/>
    <circle cx="0" cy="0" r="22" fill="rgba(0, 174, 239, 0.1)" stroke="#00AEEF" stroke-width="4" stroke-dasharray="100 30" transform="rotate(90)"/>
  </g>

  <!-- Micro m (resolved dots) -->
  <g id="micro-m" fill="#333" transform="translate(58, 48)">
      <circle cx="2" cy="12" r="1.5"/> <circle cx="2" cy="8" r="1.5"/> <circle cx="2" cy="4" r="1.5"/>
      <path d="M 2 8 C 2 2, 8 2, 8 8 V 12" fill="none" stroke="#333" stroke-width="3" stroke-linecap="round"/>
      <path d="M 14 8 C 14 2, 20 2, 20 8 V 12" fill="none" stroke="#333" stroke-width="3" stroke-linecap="round"/>
  </g>
</svg>